# xmcd CD database file
#
# Track frame offsets:
#	150
#	12833
#	20492
#	31093
#	43139
#	54370
#	62269
#	71236
#	80816
#	90686
#	103011
#	114193
#	122603
#	135495
#	144808
#	156129
#	166547
#	177481
#	187610
#	196270
#	205867
#	215768
#	224532
#	233879
#	245309
#
# Disc length: 3379 seconds
#
# Revision: 0
# Processed by: cddbd v1.5.2PL0 Copyright (c) Steve Scherf et al.
# Submitted via: CDex 1.51
#
DISCID=4e0d3119
DTITLE=Johnny Cash  - These Things Shall Pass
DYEAR=2010
DGENRE=Country
TTITLE0=Folsom Prison Blues
TTITLE1=Hey Good Lookin´
TTITLE2=Run Softly. Blue River
TTITLE3=That´s Enough
TTITLE4=I´d Rather Die Young
TTITLE5=Old Apache Squaw
TTITLE6=Pickin´ Time
TTITLE7=Great Speckled Bird
TTITLE8=Shepherd of My Heart
TTITLE9=My Grandfather´s Clock
TTITLE10=Clementine
TTITLE11=Swing Low, Sweet Chariot
TTITLE12=Suppertime
TTITLE13=It Was Jesus
TTITLE14=I Saw a Man
TTITLE15=Snow in His Hair
TTITLE16=Lead Me Father
TTITLE17=These Things Shal Pass
TTITLE18=He´ll Be a Friend
TTITLE19=The Man on the Hill
TTITLE20=Hank and Joe and Me
TTITLE21=I Want to Go Home
TTITLE22=The Caretaker
TTITLE23=Don´t Step om Mother´s Roses
TTITLE24=It Could Be You (Instead of Him)
EXTD=YEAR: 2010
EXTT0=
EXTT1=
EXTT2=
EXTT3=
EXTT4=
EXTT5=
EXTT6=
EXTT7=
EXTT8=
EXTT9=
EXTT10=
EXTT11=
EXTT12=
EXTT13=
EXTT14=
EXTT15=
EXTT16=
EXTT17=
EXTT18=
EXTT19=
EXTT20=
EXTT21=
EXTT22=
EXTT23=
EXTT24=
PLAYORDER=
